<svg xmlns="http://www.w3.org/2000/svg" xmlns:xlink="http://www.w3.org/1999/xlink" width="844.232" height="10513.248" viewBox="0 0 844.232 10513.248">
  <defs>
    <linearGradient id="linear-gradient" x1="0.5" x2="0.5" y2="1" gradientUnits="objectBoundingBox">
      <stop offset="0" stop-color="#a7a7a7" stop-opacity="0.518"/>
      <stop offset="0.532" stop-color="#393939" stop-opacity="0.969"/>
      <stop offset="1" stop-color="#959595" stop-opacity="0.627"/>
    </linearGradient>
  </defs>
  <path id="패스_147" data-name="패스 147" d="M20214.594,7508h292.063s1.049,64.857,120.734,85.409,111.824,20.443,118.945,58.709,24.941,82.284,0,95.478-76.473,57.767,0,60.738,149.906,30.222,156.938,43.212,0,77.518,0,77.518h-63.7l63.7,26.011s15.734,27.811,0,53.083-22.967,73.445-33.947,79.081,59.621,32.432,59.621,32.432,38.289,30.1,13.059,55.354-38.732,73.671-38.732,73.671,45.633-7.427,68.684,11.864,22.955,65.369,22.955,65.369l-22.955,49.92s-14.291,107.527,22.955,123.7,54.137,58.163,54.494,111.149-11.389,264.806-14.357,295.7-19.451,111.118-40.137,119.106-37.025,102.607-37.025,102.607v88.044l-54.613,40.927v53.347h54.613l20.547,54.643-20.547,45.308v64.838l-36.3,144.92-106.023,180.09-16.545,76.637-60.824,17.615v109.08l29,118.689-29,35.217-76.8,14.676v67.727l-53.973,20.854,53.973,14.1,22.191,71.711,42.5,45.092-29.066,99.924-67.238,9.4,31.609,78.176-67.451,91.955-174.586,77.092v69.883l-46.729,32.049-81.049,223.441-12.6,91.113,31.008,70.461,44.1,81.389,18.537,106.408,15.75,32.592v147.674l30.979,66.547v94.57l-65.266,62.1,18.537,34.734,27.838,9.582,18.891,115.395,38.236,58.875,12.922,162.316-51.158,92.783V12483l-30.979,67.119-34.287,197.121-29.893,86.012,64.18,43.412h-15.75l-18.537,90.787-12.555,60.117V13324.3l-71.754,383.313-27.133,378.162c0-13.236,73.775,124.963,73.775,124.963v62.771l-46.643,31.09-27.133,49.791,56.158,20.918-29.025,47.609-52.3,18.924s25.172,172.635,25.172,172.635l41.482,101.6,32.293,22.705v30.705l-17.617,24.891,17.617,14,44.828-26.945v26.945l-13.82,55.18,32.947,83.33v48.811l-32.947,52.082,32.947,54.221v38.4s-27.871,18.846-32.947,18.748,13.82,84.451,13.82,84.451,50.246,16.143,46.688,25.467-14.059,44.934-14.059,44.934v81.963l14.059,94.988,12.539,219.953,30.23,32.7-30.23,110.164-59.227,74.205s-8.877,51.928,0,59.4,32.629,233.883,32.629,233.883l26.6,71.988v82.844l-72.551,92.711-23.4,112.338,23.4,114.111v133.314l-36.32,86.566,36.32,587.895,24.643,170.514,47.908,105.326,100.691,123.482,34.035,70.258,38.424,19.971s24.129,28.678,24.129,28.678h-412.574Z" transform="translate(-20205.182 -7508)" opacity="0.35" fill="url(#linear-gradient)"/>
</svg>
