<svg xmlns="http://www.w3.org/2000/svg" xmlns:xlink="http://www.w3.org/1999/xlink" width="844.232" height="19999.998" viewBox="0 0 844.232 19999.998">
  <defs>
    <linearGradient id="linear-gradient" x1="0.5" x2="0.5" y2="1" gradientUnits="objectBoundingBox">
      <stop offset="0" stop-color="#110d36"/>
      <stop offset="0.532" stop-color="#777" stop-opacity="0.8"/>
      <stop offset="1" stop-opacity="0.627"/>
    </linearGradient>
  </defs>
  <path id="패스_146" data-name="패스 146" d="M21040,7508h-292.062s-1.049,123.383-120.734,162.479-111.824,38.889-118.945,111.687-24.941,156.533,0,181.632,76.473,109.895,0,115.546-149.906,57.492-156.937,82.206,0,147.466,0,147.466h63.7l-63.7,49.483s-15.734,52.907,0,100.982,22.967,139.719,33.947,150.44-59.621,61.7-59.621,61.7-38.289,57.263-13.059,105.3,38.732,140.147,38.732,140.147-45.633-14.127-68.684,22.571S20259.682,9064,20259.682,9064l22.955,94.965s14.291,204.557-22.955,235.323-54.137,110.648-54.494,211.447,11.389,503.758,14.357,562.521,19.451,211.387,40.137,226.583,37.025,195.2,37.025,195.2v167.491l54.613,77.857v101.485h-54.613l-20.547,103.95,20.547,86.189v123.346l36.3,275.689,106.023,342.6,16.545,145.793,60.824,33.51v207.51l-29,225.79,29,67,76.8,27.917v128.841l53.973,39.672-53.973,26.822-22.191,136.42-42.5,85.782,29.066,190.091,67.238,17.886-31.609,148.719,67.451,174.932,174.586,146.656v132.943l46.729,60.969,81.049,425.066,12.6,173.328-31.008,134.043-44.1,154.832-18.537,202.428-15.75,62v280.928l-30.979,126.6v179.906l65.266,118.137-18.537,66.078-27.838,18.229-18.891,219.52-38.236,112-12.922,308.784,51.158,176.51v347.967l30.979,127.686,34.287,374.994,29.893,163.625-64.18,82.586h15.75l18.537,172.713,12.555,114.363v564.49l71.754,729.2,27.133,719.4c0-25.182-73.775,237.723-73.775,237.723v119.418l46.643,59.143,27.133,94.721-56.158,39.791,29.025,90.572,52.3,36s-25.172,328.414-25.172,328.414l-41.482,193.287-32.293,43.2v58.412l17.617,47.35-17.617,26.627-44.828-51.26v51.26l13.82,104.971-32.947,158.525v92.854l32.947,99.08-32.947,103.146v73.053s27.871,35.85,32.947,35.666-13.82,160.656-13.82,160.656-50.246,30.709-46.687,48.445,14.059,85.48,14.059,85.48v155.926l-14.059,180.7-12.539,418.43-30.23,62.2,30.23,209.57,59.227,141.168s8.877,98.781,0,113-32.629,444.928-32.629,444.928l-26.6,136.951v157.6l72.551,176.371,23.4,213.705-23.4,217.08v253.617l36.32,164.678-36.32,1118.389-24.643,324.377-47.908,200.367-100.691,234.908-34.035,133.656-38.424,37.992s-24.129,54.557-24.129,54.557h412.574Z" transform="translate(-20205.18 -7508)" opacity="0.662" fill="url(#linear-gradient)"/>
</svg>
