<svg xmlns="http://www.w3.org/2000/svg" xmlns:xlink="http://www.w3.org/1999/xlink" width="777.688" height="279.104" viewBox="0 0 777.688 279.104">
  <defs>
    <clipPath id="clip-path">
      <rect width="777.688" height="279.104" fill="none"/>
    </clipPath>
  </defs>
  <g id="반복_그리드_1" data-name="반복 그리드 1" clip-path="url(#clip-path)">
    <g transform="translate(-596.328 -388.516)">
      <g id="그룹_54" data-name="그룹 54" transform="translate(413.137 348.238)" style="isolation: isolate">
        <path id="패스_1" data-name="패스 1" d="M633.617,178.617s18.653-39.669-20.9-56.446c-21.508-9.123-52.078-6.249-87.182,6.75-36.208,13.412-67.264,13.161-103.966,12.108-34.653-1-82.221-10.576-98.529-24.3-14.833-12.479-23.6-31.814-35.335-40.6-26.092-19.535-78.014-8.045-97.336,29.219-15.068,29.057-18.862,81.542,118.91,96.321,0,0-99.014-11.566-113.48-50.07-6.354-16.921-5.345-29.749.171-38.967C204.214,98.868,215,74.1,265.282,75.8c28.3.955,32.652,31.341,61.836,49.195,22.412,13.7,64.593,16.765,100.042,16.191,107.919-1.748,112.078-30,158.052-35.472C643.061,98.83,633.617,178.617,633.617,178.617Z" transform="translate(0 57.481)" fill="#fff"/>
        <g id="그룹_1" data-name="그룹 1" transform="translate(221.997 183.481)">
          <path id="패스_2" data-name="패스 2" d="M332.294,97.826V112.1A118.955,118.955,0,0,0,332.294,97.826Z" transform="translate(101.887 -58.475)" fill="#fff"/>
          <path id="패스_5" data-name="패스 5" d="M257.5,107.09l30.3,72.177H226.093l12.175-27.982c-1.3-.1-2.585-.213-3.835-.371l-21.746,50.023c-4.774,11.2-9.368,12.489-17.263,14.51v2.2H223.7v-2.2c-11.017-2.021-11.753-3.305-6.976-14.51l7.9-18h64.647l7.528,18c4.593,11.2,3.857,12.489-7.16,14.51v2.2h55.644v-2.2c-7.9-2.021-12.489-3.305-17.263-14.51l-48.3-115.516h-1.837c-6.243,6.795-13.222,7.715-25.527,7.715v1.834l3.121,7.531-20.683,47.583c1.335.314,2.563.558,3.67.752Z" transform="translate(-195.424 -85.421)" fill="#fff"/>
          <path id="패스_6" data-name="패스 6" d="M240.353,113.1v3.67c11.937,0,13.774,4.225,13.774,13.777v49.585c0,18.364,5.326,28.464,21.3,28.464,20.017,0,24.975-14.142,32.138-33.606l-3.305-1.469c-5.142,14.691-9.732,21.117-15.058,21.117-6.427,0-7.163-6.243-7.163-17.812V130.543c0-9.552,3.673-13.777,21.853-13.777V113.1H282.042V91.934q-2.036-.309-4.041-.654C272.557,103.992,261.956,111.983,240.353,113.1Z" transform="translate(-97.829 -72.692)" fill="#fff"/>
          <path id="패스_7" data-name="패스 7" d="M272.689,94.267v88.521c0,12.121-2.2,13.958-10.1,15.978v2.2h48.119v-2.2c-7.9-2.021-10.1-3.857-10.1-15.978V93.1A201.9,201.9,0,0,1,272.689,94.267Z" transform="translate(-49.534 -68.741)" fill="#fff"/>
          <path id="패스_8" data-name="패스 8" d="M391.577,172.112V133.547c0-26.815-22.405-36.547-50.5-36.547-15.059,0-27.18,3.673-40.037,3.673l-14.322,20.385h3.673c18.18-15.61,36.728-20.385,48.849-20.385,18,0,24.426,6.976,24.426,29.384V133c-7.712-8.632-20.017-13.59-35.443-13.59-27.731,0-48.668,13.406-48.668,38.384s20.937,38.381,48.668,38.381c15.427,0,27.732-4.958,35.443-13.59v1.288c0,9.364,4.225,12.3,9.735,12.3,4.406,0,8.08-1.469,14.142-4.038l17.812-8.083-.917-2.021C392.861,185.153,391.577,184.233,391.577,172.112Zm-55.095,18c-15.059,0-26.812-11.569-26.812-32.322s11.753-32.325,26.812-32.325,27.18,11.2,27.18,32.325S351.54,190.111,336.482,190.111Z" transform="translate(-12.684 -60.269)" fill="#fff"/>
          <path id="패스_9" data-name="패스 9" d="M433.805,174.316V132.259C433.805,107.1,418.382,97,397.63,97c-16.53,0-29.936,8.632-39.3,16.9V99.62q-.067-1.275-.165-2.62h-1.669c-6.246,6.611-13.225,7.344-23.141,7.344H320.31v2.2c7.9,2.021,10.1,3.857,10.1,15.978v51.79c0,12.121-2.2,13.958-10.1,15.978v2.2h48.116v-2.2c-7.9-2.021-10.1-3.857-10.1-15.978V117.569c10.284-9,21.121-14.142,30.672-14.142,11.569,0,16.9,8.08,16.9,22.589v48.3c0,12.121-2.2,13.958-10.1,15.978v2.2h48.119v-2.2C436.013,188.274,433.805,186.437,433.805,174.316Z" transform="translate(75.855 -60.269)" fill="#fff"/>
          <path id="패스_10" data-name="패스 10" d="M407.436,198.938c-6.43,0-7.163-6.243-7.163-17.812V134.847c0-9.552,3.673-13.777,21.853-13.777V117.4H400.273V89.3h-1.837c-4.593,16.343-14.878,26.812-39.856,28.1v3.67c11.94,0,13.777,4.225,13.777,13.777v49.585c0,18.364,5.326,28.464,21.3,28.464,20.017,0,24.975-14.142,32.138-33.606l-3.306-1.469C417.353,192.511,412.759,198.938,407.436,198.938Z" transform="translate(158.988 -76.995)" fill="#fff"/>
          <ellipse id="타원_1" data-name="타원 1" cx="15.795" cy="12.488" rx="15.795" ry="12.488" transform="translate(597.464 1.469)" fill="#fff"/>
          <path id="패스_11" data-name="패스 11" d="M419.526,174.316V97h-1.84c-6.243,6.611-13.222,7.344-23.138,7.344H381.51v2.2c7.9,2.021,10.1,3.857,10.1,15.978v51.79c0,12.121-2.2,13.958-10.1,15.978v2.2h48.116v-2.2C421.727,188.274,419.526,186.437,419.526,174.316Z" transform="translate(208.795 -60.269)" fill="#fff"/>
          <path id="패스_12" data-name="패스 12" d="M460.848,136.117c-21.121-10.468-29.936-16.711-29.936-24.978,0-5.326,4.222-10.284,15.611-10.284,15.058,0,27,5.694,37.28,32.874h3.673l-7.163-33.055C466.539,100.673,460.661,97,442.3,97c-22.037,0-40.036,5.326-40.036,22.77,0,15.062,11.753,23.693,33.978,34.346,19.468,9.364,28.1,14.875,28.1,24.426,0,6.979-5.145,13.958-19.284,13.958-16.714,0-34.342-5.694-42.793-35.262h-3.67l5.323,35.262c13.774,0,25.162,3.67,44.995,3.67,26.815,0,44.078-7.16,44.078-26.628C492.985,153.564,480.68,145.668,460.848,136.117Z" transform="translate(245.896 -60.269)" fill="#fff"/>
          <path id="패스_13" data-name="패스 13" d="M211.556,107.007l.2-.45c-1.107-.193-2.335-.438-3.67-.752l-.362.831C208.971,106.795,210.259,106.909,211.556,107.007Z" transform="translate(-168.712 -41.143)" fill="#fff"/>
          <path id="패스_14" data-name="패스 14" d="M252.5,91.075c-.089.222-.187.435-.279.653q2,.343,4.041.654v-.238Q254.378,91.625,252.5,91.075Z" transform="translate(-72.049 -73.139)" fill="#fff"/>
          <path id="패스_15" data-name="패스 15" d="M265.738,94.363c.07,1.186.1,2.5.1,3.962a201.9,201.9,0,0,0,27.912-1.167V91.232A194,194,0,0,1,265.738,94.363Z" transform="translate(-42.687 -72.798)" fill="#fff"/>
          <path id="패스_16" data-name="패스 16" d="M332.407,97h-.165q.1,1.347.165,2.62Z" transform="translate(101.774 -60.269)" fill="#fff"/>
        </g>
        <g id="그룹_2" data-name="그룹 2" transform="translate(190.139 40.278)">
          <path id="패스_21" data-name="패스 21" d="M303.467,86.373c0-35.811-26.26-46.1-57.481-46.1-15.062,0-26.815,3.305-47.567,3.673H185.381v2.2c7.9,2.021,10.1,3.857,10.1,15.978v75.343A63.491,63.491,0,0,1,223.4,120.662V45.788a69.223,69.223,0,0,1,16.711-1.837c19.836,0,32.138,14.142,32.138,42.606,0,14.192-2.817,25.241-8.889,32.43a79.428,79.428,0,0,1,18.025,5.77C294.112,118.184,303.467,106.412,303.467,86.373Z" transform="translate(-185.381 -40.278)" fill="#fff"/>
          <path id="패스_22" data-name="패스 22" d="M272.349,170.3c-7.9-2.021-10.1-3.857-10.1-15.978V40.278h-1.837c-6.246,6.611-13.225,7.347-23.141,7.347H224.23v2.2c7.9,2.021,10.1,3.857,10.1,15.978v88.521a35.715,35.715,0,0,1-.793,8.806,81.846,81.846,0,0,0,7.594,9.377h31.215Z" transform="translate(-100.993 -40.278)" fill="#fff"/>
          <path id="패스_23" data-name="패스 23" d="M289.862,74.262c-27.732,0-48.668,13.406-48.668,38.384s20.937,38.381,48.668,38.381c15.426,0,27.731-4.958,35.443-13.59v1.288c0,9.364,4.225,12.3,9.736,12.3,4.406,0,8.08-1.469,14.142-4.038L367,138.906l-.92-2.021c-11.569,3.125-12.857,2.2-12.857-9.916V88.4c0-26.815-22.405-36.547-50.5-36.547-15.062,0-27.183,3.673-40.036,3.673L248.357,75.915h3.673C270.21,60.3,288.761,55.53,300.882,55.53c18,0,24.423,6.976,24.423,29.384v2.937C317.594,79.221,305.289,74.262,289.862,74.262Zm8.264,70.705c-15.058,0-26.812-11.569-26.812-32.322s11.753-32.325,26.812-32.325,27.18,11.2,27.18,32.325S313.184,144.968,298.126,144.968Z" transform="translate(-64.143 -15.126)" fill="#fff"/>
          <path id="패스_24" data-name="패스 24" d="M285.8,70.846h-3.673l5.326,35.262a144.616,144.616,0,0,1,19.243,1.707q5.03-1.4,9.9-2.937C303.981,102.016,292.231,93.35,285.8,70.846Z" transform="translate(24.774 26.122)" fill="#fff"/>
          <path id="패스_25" data-name="패스 25" d="M341.87,90.974C320.75,80.505,311.934,74.262,311.934,66c0-5.326,4.225-10.284,15.614-10.284,15.058,0,27,5.694,37.28,32.874H368.5L361.338,55.53c-13.774,0-19.652-3.673-38.016-3.673-22.037,0-40.037,5.326-40.037,22.77,0,15.062,11.753,23.693,33.974,34.346,19.468,9.364,28.1,14.875,28.1,24.426a50.974,50.974,0,0,1,28.474-5.926,29.937,29.937,0,0,0,.178-3.074C374.011,108.421,361.706,100.525,341.87,90.974Z" transform="translate(27.29 -15.126)" fill="#fff"/>
          <path id="패스_26" data-name="패스 26" d="M360.913,153.8c-6.427,0-7.163-6.243-7.163-17.812V89.7c0-9.552,3.673-13.777,21.857-13.777v-3.67H353.75v-28.1h-1.837c-4.59,16.343-14.875,26.812-39.853,28.1v3.67c11.937,0,13.774,4.225,13.774,13.777v49.585a69.414,69.414,0,0,0,.482,8.444,55,55,0,0,1,24.807,19.8c16.724-1.808,21.5-15.287,28.153-33.384l-3.3-1.469C370.833,147.368,366.239,153.8,360.913,153.8Z" transform="translate(89.795 -31.852)" fill="#fff"/>
          <path id="패스_27" data-name="패스 27" d="M373.006,129.173V51.857h-1.84c-6.243,6.611-13.222,7.344-23.138,7.344H334.99v2.2c7.892,2.021,10.1,3.857,10.1,15.978v51.79c0,12.121-2.208,13.958-10.1,15.978v2.2h48.116v-2.2C375.207,143.131,373.006,141.294,373.006,129.173Z" transform="translate(139.602 -15.126)" fill="#fff"/>
          <ellipse id="타원_2" data-name="타원 2" cx="15.795" cy="12.488" rx="15.795" ry="12.488" transform="translate(481.751 1.469)" fill="#fff"/>
          <path id="패스_28" data-name="패스 28" d="M453.1,115.032c-10.833,20.753-23.69,26.079-35.808,26.079-24.245,0-33.978-20.753-33.978-43.526,0-22.957,8.632-41.873,28.468-41.873,10.649,0,22.954,5.51,33.238,32.874h3.673L441.526,55.53c-11.937,0-19.649-3.673-33.422-3.673-32.693,0-56.383,20.017-56.383,50.137,0,30.853,21.673,49.033,52.893,49.033,21.3,0,38.749-8.08,51.79-34.526Z" transform="translate(175.945 -15.126)" fill="#fff"/>
        </g>
        <path id="패스_29" data-name="패스 29" d="M271.213,86.042s-.412,12.971-15.23,12.971c14.817,0,15.23,12.971,15.23,12.971s.409-12.971,15.227-12.971C271.622,99.013,271.213,86.042,271.213,86.042Z" transform="translate(158.12 99.409)" fill="#fff"/>
        <path id="패스_30" data-name="패스 30" d="M269.626,66.931S269.213,79.9,254.4,79.9c14.814,0,15.227,12.968,15.227,12.968s.412-12.968,15.23-12.968C270.038,79.9,269.626,66.931,269.626,66.931Z" transform="translate(154.679 57.896)" fill="#fff"/>
        <path id="패스_31" data-name="패스 31" d="M308.843,112.074s-.412,12.971-15.23,12.971c14.817,0,15.23,12.968,15.23,12.968s.409-12.968,15.227-12.968C309.252,125.045,308.843,112.074,308.843,112.074Z" transform="translate(239.861 155.956)" fill="#fff"/>
      </g>
    </g>
  </g>
</svg>
